<svg width="1804" height="1028" viewBox="0 0 1804 1028" fill="none" xmlns="http://www.w3.org/2000/svg">
<g clip-path="url(#clip0_35_169)">
<path d="M0 0H1363.76H1802.45C1803.16 1.06371 1803.87 2.26823 1804 3.56945C1804.58 9.30545 1804.06 15.6934 1804.07 21.4862L1804.12 56.7808L1804.14 175.785L1804.07 243.572C1804.06 251.602 1805.26 261.933 1803.91 269.75C1803.76 270.607 1803.39 271.48 1803.04 272.272C1804.68 276.767 1804.02 282.322 1804.02 287.068L1804.04 312.848L1804.1 407.284L1804.14 821.794L1804.06 984.056C1804.06 991.034 1805.23 1022.85 1803.66 1026.07C1803.32 1026.76 1802.93 1027.39 1802.45 1028H657.766H0V675.212V0Z" fill="white"/>
<path d="M1390.94 536.754C1402.44 535.957 1417.89 535.362 1429.19 537.171C1431.25 539.117 1431.21 539.259 1431.58 542.109C1430.29 544.559 1429.86 544.556 1427.33 545.719L1425.82 545.802C1420.46 545.895 1393.79 547.297 1390.78 545.515C1390.05 545.078 1389.16 543.92 1388.51 543.289C1388.39 539.645 1388.77 539.426 1390.94 536.754Z" fill="#3EBF6E"/>
<path d="M1282.2 536.753L1283.43 536.536C1293.32 535.025 1305.14 536.219 1315.23 536.209C1319.01 536.205 1324.81 535.409 1328.34 536.271C1328.8 536.385 1329.94 537.465 1330.39 537.799C1331.68 540.667 1331.71 540.834 1330.98 543.894L1327.81 545.68C1327.24 546.014 1326.8 546.302 1326.14 546.397C1316.42 547.772 1304.65 546.526 1294.73 546.502C1291.79 546.495 1286.01 547.17 1283.4 546.083C1282.66 545.768 1281.48 544.461 1280.8 543.894C1280.4 540.774 1280.78 539.485 1282.2 536.753Z" fill="#3EBF6E"/>
<path d="M1631.49 494.813C1635.78 494.328 1639.04 493.972 1642.91 496.353C1646.18 498.362 1648.47 501.902 1649.33 505.619C1650.18 509.332 1649.84 512.48 1647.7 515.735C1645.45 519.152 1642.39 520.384 1638.59 521.228C1637.02 521.79 1635.69 521.892 1634.06 521.574C1630.26 520.833 1626.54 518.867 1624.39 515.511C1622.31 512.249 1621.52 507.871 1622.57 504.055C1623.83 499.402 1627.6 497.034 1631.49 494.813Z" fill="#3EBF6E"/>
<path d="M1376.69 633.129C1381.04 632.708 1384.47 632.096 1388.43 634.339C1391.8 636.24 1394.53 639.526 1395.51 643.334C1396.56 647.463 1396.06 651.039 1393.82 654.712C1391.62 658.34 1388.6 659.888 1384.63 660.794C1382.97 661.248 1380.62 661.429 1378.93 661.185C1374.98 660.615 1371.5 657.865 1369.38 654.547C1367.38 651.418 1366.6 647.155 1367.52 643.524C1368.85 638.28 1372.37 635.854 1376.69 633.129Z" fill="#181C34"/>
<path d="M1060.35 878.521C1063.9 878.174 1068.3 878.521 1071.4 880.462C1075.22 882.856 1077.72 886.687 1078.71 891.106C1079.55 894.828 1078.66 899.111 1076.56 902.26C1073.63 906.64 1070.11 908.164 1065.13 909.081C1062.96 909.441 1060.41 908.974 1058.35 908.197C1054.55 906.763 1051.34 903.539 1049.75 899.785C1048.08 895.854 1048.09 891.703 1049.7 887.771C1051.85 882.537 1055.37 880.553 1060.35 878.521Z" fill="#181C34"/>
<path d="M589.278 466.512L589.281 522.803L589.284 580.592L589.287 636.107L499.198 636.222L461.652 636.197C452.787 636.176 442.854 637.265 434.5 633.802C427.776 631.013 422.183 625.145 419.547 618.318C416.786 611.164 417.276 603.349 420.445 596.438C428.409 579.07 444.231 580.135 460.145 580.141L486.412 580.099C492.091 580.076 497.773 580.535 503.19 578.482C510.033 575.889 515.511 570.173 518.526 563.509C521.494 556.95 521.771 549.083 519.164 542.357C515.959 534.091 510.432 528.923 502.529 525.381C495.184 522.09 483.668 523.72 475.621 523.73L405.151 523.781C394.775 523.78 382.492 525.082 372.308 523.317C367.233 522.438 362.439 520.093 358.658 516.561C352.582 510.884 349.157 504.162 349.022 495.707C348.894 487.659 351.546 480.206 357.202 474.518C361.645 470.05 367.476 467.306 373.655 466.353C380.404 465.313 388.256 466.014 395.115 466.021L437.109 466.115L589.278 466.512Z" fill="#18814C"/>
<path d="M589.284 580.592C583.52 580.276 577.777 579.977 572.504 577.312C566.434 574.244 560.378 568.06 558.331 561.415C557.483 558.663 556.817 556.102 556.709 553.195C556.395 544.757 559.288 537.866 565.07 531.844C571.842 524.792 579.986 522.93 589.281 522.803L589.284 580.592Z" fill="white"/>
<path d="M180.468 535.437C183.085 535.377 186.178 535.128 188.716 535.791C191.774 536.59 194.071 539.595 195.625 542.206C197.104 544.695 197.768 548.464 196.983 551.304C195.67 556.055 192.637 558.781 188.575 561.169C186.241 561.333 183.498 561.647 181.205 561.139C177.961 560.419 174.987 557.71 173.276 554.918C171.403 551.861 171.03 547.702 172.018 544.25C173.231 540.015 176.939 537.538 180.468 535.437Z" fill="#3EBF6E"/>
<path d="M505.959 330.594C507.562 330.547 509.297 330.889 510.898 331.081C513.187 332.841 514.585 333.867 515.291 336.867C515.075 339.073 514.672 341.389 512.882 342.901C510.112 345.24 506.221 344.463 502.839 344.455L477.204 344.397C475.274 344.548 473.011 344.452 471.258 343.508C468.792 342.179 468.478 340.691 467.701 338.205C467.89 335.953 468.429 334.544 469.944 332.839C470.558 332.147 471.278 331.388 472.19 331.117C475.164 330.233 480.066 330.901 483.205 330.918L505.959 330.594Z" fill="#3EBF6E"/>
<path d="M506.9 398.466C512.374 398.332 519.2 397.431 524.55 398.553C527.022 399.071 528.023 400.835 529.23 402.901C529.36 406.408 529.192 407.204 527.29 410.138C522.588 414.115 507.694 412.177 501.383 412.073C495.578 412.122 489.756 412.39 484.031 411.259C481.875 409.21 481.183 408.537 480.269 405.578C480.814 402.759 481.666 401.62 483.586 399.634C488.425 396.937 501.077 398.47 506.9 398.466Z" fill="#3EBF6E"/>
<path d="M1503.24 180.702C1507.81 180.151 1511.58 179.775 1515.81 182.031C1518.73 183.586 1521.3 186.707 1522.19 189.935C1523.23 193.786 1523.14 197.547 1521.1 201.068C1518.77 205.088 1516.04 206.718 1511.68 207.874C1510 208.257 1507.86 208.347 1506.16 208.02C1502.63 207.347 1498.89 205.141 1496.83 202.161C1494.96 199.462 1493.6 195.011 1494.28 191.751C1495.41 186.381 1498.88 183.512 1503.24 180.702Z" fill="#3EBF6E"/>
<path d="M1084.06 78.9673C1088.22 78.5092 1091.55 78.1094 1095.42 80.1204C1098.75 81.8504 1102.34 85.7754 1103.32 89.4886C1104.31 93.2717 1104.07 97.9739 1102.09 101.381C1099.6 105.699 1096.18 107.394 1091.54 108.548C1089.81 108.98 1087.41 108.866 1085.66 108.545C1082.03 107.882 1078.42 105.143 1076.49 102.015C1074.41 98.6563 1073.54 94.5327 1074.39 90.6557C1075.71 84.7035 1079.15 82.1127 1084.06 78.9673Z" fill="#181C34"/>
<path d="M362.835 331.067L391.985 330.892C398.062 330.848 405.362 330.031 411.253 331.512C413.234 333.398 414.607 334.297 414.803 337.312C414.975 339.95 412.885 342.368 411.405 344.342C402.289 344.955 392.859 344.532 383.712 344.572C377.205 344.601 369.839 345.305 363.472 344.005C361.048 342.149 360.593 341.357 359.402 338.651C359.806 334.728 360.522 334.096 362.835 331.067Z" fill="#3EBF6E"/>
<path d="M268.812 138.549C278.812 137.99 288.084 139.385 296.86 144.537C306.89 150.425 314.281 160.55 317.141 171.907C320.297 184.441 318.239 196.453 311.61 207.474C304.741 218.895 293.541 224.926 281.097 227.902C269.832 229.575 259.279 226.967 249.78 220.656C240.416 214.435 233.275 203.894 231.099 192.709C228.815 180.967 230.697 168.263 237.382 158.262C244.796 147.169 256.055 140.913 268.812 138.549Z" fill="#181C34"/>
<path d="M1526.61 828.044C1525.54 825.528 1521.34 823.303 1519.24 821.418C1516.25 818.746 1513.35 815.573 1510.91 812.398C1501.24 799.857 1497.32 783.912 1499.33 768.167C1501.39 751.964 1510.66 737.206 1523.36 727.387C1535.33 718.132 1552.57 713.96 1567.37 716.086C1583.27 718.371 1597.98 727.726 1607.47 740.783C1611.71 746.619 1619.08 760.552 1617.68 767.79L1617.33 769.068C1620.72 776.55 1617.25 789.31 1614.56 796.636C1608.85 812.178 1597.48 824.412 1582.51 831.227C1567.07 838.264 1550.41 837.558 1534.8 831.301C1532.07 830.205 1529.49 828.706 1526.61 828.044Z" fill="#3EBF6E"/>
<path d="M1215.12 302.178C1226.52 303.251 1238.31 302.638 1249.76 302.622L1309.15 302.53C1318.21 302.517 1329.98 301.124 1338.76 303.093C1344.78 304.44 1350.8 308.201 1354.67 313.055C1359.77 319.447 1361.7 327.418 1360.78 335.508C1359.93 343.034 1355.66 350.053 1349.76 354.612C1346.18 357.376 1341.85 359.257 1337.4 360.03C1327.51 361.748 1315.58 360.599 1305.46 360.63L1239.67 360.819C1232.19 360.841 1222.46 359.738 1215.29 361.659C1209.26 360.414 1201.25 361.396 1195.04 361.4L1148.13 361.457C1134.24 361.496 1113.79 364.334 1101.32 357.875C1095.15 354.677 1089.91 348.403 1087.81 341.686C1085.5 334.301 1085.89 325.513 1089.48 318.572C1093.17 311.44 1099.27 306.365 1106.8 303.934C1114.57 301.426 1124.38 302.574 1132.51 302.602L1188.5 302.666C1196.7 302.671 1206.62 303.719 1214.59 302.28L1215.12 302.178Z" fill="#3EBF6E"/>
</g>
<defs>
<clipPath id="clip0_35_169">
<rect width="1804" height="1028" fill="white"/>
</clipPath>
</defs>
</svg>
