<svg width="665" height="615" viewBox="0 0 665 615" fill="none" xmlns="http://www.w3.org/2000/svg">
<g clip-path="url(#clip0_49_161)">
<path d="M477.148 535.056C479.04 534.926 480.966 534.978 482.748 535.707C485.34 536.768 487.28 538.977 488.287 541.558C489.171 543.825 489.279 546.489 488.303 548.74C486.753 552.311 484.372 553.69 480.914 555.044C478.654 555.296 476.995 555.354 474.904 554.354C472.288 553.102 470.545 551.195 469.618 548.445C468.663 545.611 468.796 543.165 470.151 540.477C471.692 537.418 474.022 536.071 477.148 535.056Z" fill="#3EBF6E"/>
<path d="M492.264 278.529L510.93 278.506C511.498 278.861 511.957 278.976 512.225 279.622C512.767 280.929 512.468 281.804 511.902 282.997L493.301 283.106C492.277 282.96 492.02 282.373 491.521 281.56C491.448 280.098 491.571 279.833 492.264 278.529Z" fill="#181C34"/>
<path d="M174.37 516L188.06 516.108C189.652 516.119 192.229 515.822 193.669 516.397C194.652 516.789 194.964 517.259 195.414 518.177C195.232 519.399 194.819 519.907 194.013 520.821L182.002 520.945C179.465 520.964 176.77 521.188 174.274 520.697C173.412 519.874 172.913 519.507 173.013 518.177C173.097 517.058 173.545 516.658 174.37 516Z" fill="#181C34"/>
<path d="M69.3702 334L83.0597 334.108C84.6524 334.119 87.2286 333.822 88.6688 334.397C89.6517 334.789 89.9644 335.259 90.4138 336.177C90.2322 337.399 89.8191 337.907 89.0128 338.821L77.002 338.945C74.4649 338.964 71.7705 339.188 69.274 338.697C68.4122 337.874 67.9129 337.507 68.0126 336.177C68.0966 335.058 68.5447 334.658 69.3702 334Z" fill="#181C34"/>
<path d="M232.766 137.874C234.673 137.918 236.504 138.246 238.19 139.171C240.875 140.644 242.912 143.303 243.601 146.285C244.278 149.212 243.572 152.166 241.915 154.644C240.038 157.454 237.273 158.577 234.071 159.181C231.651 158.968 229.755 158.751 227.67 157.382C225.186 155.751 223.293 153.113 222.778 150.165C222.303 147.453 223.165 144.56 224.792 142.373C226.837 139.625 229.44 138.354 232.766 137.874Z" fill="#3EBF6E"/>
<path d="M396.404 397.076L414.729 397.222L414.736 409.586L416.269 410.021C421.521 411.455 426.19 414.932 430.681 417.923C433.703 415.916 436.71 413.702 439.994 412.148L450.772 428.819C447.719 431.237 444.005 432.994 440.682 435.045C442.064 441.325 441.809 446.833 441.02 453.149L451.513 459.612L441.755 475.842C438.968 475.389 435.695 472.667 433.088 471.405C432.907 471.317 431.823 470.719 431.629 470.729C431.544 470.734 430.705 471.407 430.613 471.474L425.663 474.987C422.441 477.134 418.902 478.501 415.258 479.743L415.16 488.29L415.058 492.963L395.713 492.87L395.678 479.784C392.728 478.44 389.69 477.284 386.884 475.644C384.392 474.187 382.143 472.319 379.883 470.537L371.317 476.317C368.925 473.946 367.324 470.708 365.709 467.786C364.328 465.286 362.824 462.806 361.9 460.093L366.92 456.253C367.631 455.674 369.475 454.373 369.893 453.62C370.334 452.828 369.788 443.043 369.819 441.193L370.24 434.723L362.153 429.775C362.687 427.564 364.162 425.319 365.275 423.35L371.654 412.079L378.791 415.947C379.195 416.18 380.693 417.25 381.064 417.287C381.194 417.299 381.27 417.125 381.373 417.045C385.592 413.78 390.716 410.437 395.97 409.227L396.434 409.125L396.404 397.076Z" fill="#3EBF6E"/>
<path d="M404.767 425.839C409.002 425.636 413.806 427.505 417.079 430.125C421.034 433.29 423.265 437.605 423.837 442.619C424.379 447.362 423.065 452.239 420.052 455.974C416.384 460.518 412.507 462.859 406.673 463.486C401.907 463.514 397.882 462.21 394.048 459.354C389.888 456.255 387.351 451.993 386.669 446.845C386.068 442.31 387.432 436.65 390.42 433.087C394.433 428.301 398.619 426.515 404.767 425.839Z" fill="white"/>
<path d="M321.482 528.041C328.517 527.654 335.567 530.045 341.101 534.346C347.405 539.245 351.64 546.312 352.571 554.279C353.53 562.487 351.217 570.364 346.043 576.786C340.64 583.492 333.008 586.88 324.603 587.77C316.556 587.881 309.368 585.784 303.181 580.427C297.474 575.485 293.577 568.07 293.077 560.503C292.537 552.33 294.832 544.387 300.305 538.186C303.701 534.338 308.922 530.742 313.851 529.24C316.358 528.475 318.879 528.198 321.482 528.041Z" fill="#181C34"/>
<path d="M331.134 545.315C331.672 545.311 332.273 545.253 332.705 545.628C333.973 546.726 335.119 548.047 336.306 549.235C337.177 550.105 338.315 551.033 339.026 552.031C339.262 552.363 339.339 552.774 339.345 553.175C339.356 553.975 339.088 554.457 338.554 555.026L326.687 566.997L323.627 570.047C323.093 570.577 322.522 571.262 321.893 571.672C321.512 571.921 321.01 571.913 320.571 571.915C320.195 571.916 319.749 571.92 319.404 571.745C318.584 571.331 317.846 570.44 317.194 569.796L313.351 565.973L309.063 561.701C308.067 560.706 305.556 558.728 305.478 557.25C305.435 556.425 305.942 555.841 306.475 555.266L310.246 551.561C310.714 551.08 311.774 549.717 312.445 549.699C312.883 549.687 313.313 549.689 313.694 549.934C314.537 550.474 315.326 551.379 316.035 552.095L320.064 556.116L326.017 550.13C327.486 548.646 329.284 546.21 331.134 545.315Z" fill="white"/>
<path d="M466.222 0.440019C470.512 -0.314976 476.09 0.0261932 480.361 0.534746C500.041 2.87879 515.871 12.5263 527.971 28.0878C538.058 41.0587 543.5 60.2391 541.305 76.5919C539.566 89.5436 535.212 101.402 527.211 111.853C516.015 126.475 499.148 135.333 481.073 137.713C463.267 138.945 445.624 134.737 431.435 123.487C416.03 111.274 407.209 94.5237 405.028 75.094C403.124 58.1244 408.321 39.7118 419.048 26.3969C430.943 11.6324 447.363 2.40372 466.222 0.440019Z" fill="#3EBF6E"/>
<path d="M472.853 38.2461C474.039 38.4462 474.357 38.7518 475.179 39.5595C476.019 42.41 475.622 46.0646 475.625 49.0682L475.609 66.1439L493.823 66.1382C496.093 66.1439 499.238 65.693 501.284 66.5726C502.154 67.4979 502.187 67.599 502.386 68.8561C502.246 69.4088 502.139 69.8163 501.725 70.2337C501.12 70.8433 500.745 71.1019 499.893 71.2408C497.583 71.6183 494.766 71.3084 492.385 71.2977L475.468 71.1931L475.512 88.7438C475.515 91.1071 475.891 94.3486 475.323 96.6342C475.016 97.8693 473.904 98.2325 472.904 98.8315L471.208 97.3465C470.547 94.8714 470.961 91.4881 470.971 88.8777L471.055 71.1795L444.482 71.0976C443.697 70.3041 443.153 69.9103 443.194 68.6781C443.227 67.7001 443.737 67.2236 444.39 66.5883C445.391 65.6139 467.727 66.1574 470.95 66.1738L470.914 42.5026C470.951 40.0446 471.091 39.9705 472.853 38.2461Z" fill="white"/>
<path d="M30.3259 194.217C32.4386 193.845 35.1853 194.013 37.2888 194.263C46.9806 195.418 54.7759 200.169 60.7349 207.832C65.702 214.22 68.3822 223.665 67.3011 231.718C66.4449 238.097 64.3007 243.936 60.3603 249.083C54.8471 256.284 46.5404 260.646 37.6392 261.818C28.8706 262.425 20.1824 260.353 13.1945 254.812C5.60855 248.798 1.26438 240.549 0.190531 230.981C-0.747326 222.624 1.81219 213.556 7.09486 206.999C12.9525 199.729 21.0389 195.184 30.3259 194.217Z" fill="#3EBF6E"/>
<path d="M33.5915 212.835C34.1755 212.934 34.3323 213.084 34.7367 213.482C35.1506 214.886 34.9549 216.685 34.9567 218.164L34.9489 226.573L43.9185 226.571C45.0364 226.573 46.585 226.351 47.5927 226.785C48.021 227.24 48.0371 227.29 48.1354 227.909C48.0663 228.181 48.0136 228.382 47.8099 228.588C47.5117 228.888 47.3272 229.015 46.9077 229.084C45.7702 229.269 44.3826 229.117 43.2104 229.112L34.8791 229.06L34.9009 237.703C34.9023 238.867 35.0875 240.463 34.8079 241.589C34.6568 242.197 34.1089 242.376 33.6164 242.671L32.7813 241.939C32.4561 240.721 32.6599 239.054 32.6645 237.769L32.7058 229.053L19.6198 229.013C19.2336 228.622 18.9652 228.428 18.9856 227.821C19.0017 227.34 19.2532 227.105 19.5745 226.792C20.0677 226.312 31.0671 226.58 32.6543 226.588L32.6367 214.931C32.6546 213.721 32.7237 213.684 33.5915 212.835Z" fill="white"/>
<path d="M115.986 271.058L313.314 271.002L313.238 378.182L313.343 399.087C313.353 400.441 313.818 403.996 313.392 405.157C313.272 405.481 312.992 405.72 312.792 406.002L294.852 388.413C289.728 387.891 284.346 388.182 279.185 388.174L252.314 388.155L160.904 388.129L133.588 388.183C128.844 388.205 123.917 388.504 119.188 388.214C117.408 388.105 116.925 387.863 115.784 386.524C114.565 380.556 115.249 373.445 115.248 367.341L115.259 333.013L115.297 293.058C115.305 286.276 114.282 277.536 115.986 271.058Z" fill="#181C34"/>
<path d="M143.403 294.811L183.799 294.829L183.921 308.849L143.379 308.751L143.403 294.811Z" fill="#8CD484"/>
<path d="M192.873 347.573L216.811 347.583L216.864 357.966L168.21 357.846L143.043 357.768L143.075 347.9L192.873 347.573Z" fill="white"/>
<path d="M202.179 295.573L288.974 295.761L288.91 308.455L202.216 308.506L202.179 295.573Z" fill="#3EBF6E"/>
<path d="M143.543 328.599L281.684 328.644L281.721 338.112L143.565 338.386L143.543 328.599Z" fill="white"/>
<path d="M387.05 107.558L740.934 107.541L740.95 273.767L740.974 323.644L740.978 339.059C740.974 341.634 741.173 344.406 740.942 346.963C740.894 347.48 740.671 347.967 740.429 348.42L386.822 348.432L386.771 162.793L386.757 122.268L386.767 112.324C386.77 110.858 386.54 108.926 387.05 107.558Z" fill="#181C34"/>
<path d="M465.957 122.996C467.013 122.841 468.255 122.775 469.305 122.989C470.798 123.293 472.22 124.492 472.973 125.786C473.802 127.212 474.104 129.21 473.626 130.811C473.007 132.888 471.311 134.067 469.505 135.041C468.371 135.193 467.065 135.174 465.946 134.933C464.781 134.681 463.574 133.627 462.962 132.618C462.05 131.115 461.529 129.321 461.976 127.588C462.606 125.147 463.822 124.226 465.957 122.996Z" fill="#3EBF6E"/>
<path d="M438.022 122.954C439.104 122.919 440.368 122.822 441.412 123.137C442.835 123.567 444.327 124.806 444.979 126.149C445.74 127.717 445.883 129.747 445.285 131.388C444.571 133.346 443.064 134.291 441.265 135.144C440.129 135.304 439.141 135.371 438.02 135.011C436.424 134.497 435.108 133.401 434.357 131.889C433.619 130.404 433.421 128.474 433.974 126.887C434.672 124.883 436.213 123.867 438.022 122.954Z" fill="#3EBF6E"/>
<path d="M409.37 123.008C410.539 122.947 411.763 122.837 412.903 123.159C414.555 123.625 415.913 124.623 416.711 126.175C417.372 127.462 417.479 129.76 417.007 131.131C416.269 133.274 414.833 134.174 412.901 135.155C411.866 135.289 410.642 135.339 409.629 135.078C407.945 134.645 406.562 133.54 405.717 132.023C404.921 130.593 404.856 128.42 405.326 126.862C405.935 124.847 407.605 123.897 409.37 123.008Z" fill="#3EBF6E"/>
<path d="M556.835 196.019C559.601 196.03 563.523 195.765 565.829 196.448L565.925 200.25C563.335 200.25 558.577 200.591 556.819 199.757L556.835 196.019Z" fill="white"/>
<path d="M589.35 251.083C592.034 251.058 596.266 250.77 598.588 251.387L598.679 255.245C596.002 255.243 591.63 255.539 589.466 254.862L589.35 251.083Z" fill="white"/>
<path d="M554.435 268.794L563.725 268.782L563.701 273.096L555.411 273.046C553.811 272.214 554.454 269.974 554.435 268.794Z" fill="white"/>
<path d="M581.209 232.979L601.32 232.984L601.327 237.196L581.284 237.227L581.209 232.979Z" fill="white"/>
<path d="M462.332 268.931L534.455 268.828L534.451 273.102L513.872 273.104L442.253 273.132L442.252 268.963L462.332 268.931Z" fill="white"/>
<path d="M442.163 195.961L536.638 195.948L536.695 200.249L442.213 200.227L442.163 195.961Z" fill="white"/>
<path d="M442.15 232.991L524.182 232.949L548.127 232.947C552.604 232.947 557.393 232.789 561.824 233.059L561.935 237.183L442.222 237.199L442.15 232.991Z" fill="white"/>
<path d="M442.148 251.129L571.717 251.051L571.751 255.305L442.305 255.253L442.148 251.129Z" fill="white"/>
<path d="M442.307 214.854L602.126 214.84L602.123 219.117L442.322 219.105L442.307 214.854Z" fill="white"/>
</g>
<defs>
<clipPath id="clip0_49_161">
<rect width="665" height="615" fill="white"/>
</clipPath>
</defs>
</svg>
