<svg width="440" height="356" viewBox="0 0 440 356" fill="none" xmlns="http://www.w3.org/2000/svg">
<g clip-path="url(#clip0_36_199)">
<path d="M-0.238403 0H438.45C439.163 1.06371 439.867 2.26822 439.996 3.56945C440.581 9.30545 440.056 15.6934 440.065 21.4862L440.125 56.7808L440.145 175.785L440.065 243.572C440.056 251.602 441.265 261.933 439.907 269.749C439.758 270.607 439.392 271.48 439.045 272.272L438.995 272.47C437.469 276.572 434.009 280.51 431.422 283.991C418.061 301.994 402.647 315.441 382.209 324.685C355.545 336.74 324.134 337.971 296.836 327.302C259.368 312.662 233.637 277.803 234.588 236.653C234.777 228.484 237.275 220.663 238.672 212.663C241.249 197.86 238.196 178.764 232.13 165.086C226.153 151.618 218.402 141.379 207.33 131.783C189.647 116.449 169.644 111.319 146.668 111.056C118.875 110.739 93.4603 116.434 66.5094 105.897C32.3128 92.5221 8.07786 61.438 2.2793 24.8911C1.58546 20.5195 1.15927 16.0288 1.07006 11.6007C0.990761 7.88966 1.66474 3.9545 0.0391636 0.514548L-0.238403 0Z" fill="#181C34"/>
<path d="M332.272 240.491C336.088 240.026 339.557 239.652 343.155 241.463C346.783 243.293 349.499 247.349 350.599 251.224C351.57 254.666 350.807 258.36 349.023 261.39C346.753 265.226 343.869 266.588 339.715 267.634C338.139 267.96 336.583 268.216 334.968 267.968C331.033 267.363 327.871 265.49 325.571 262.195C323.42 259.128 322.538 255.224 323.301 251.518C324.451 245.982 327.811 243.442 332.272 240.491Z" fill="white"/>
<path d="M292.405 70.9411L296.479 70.9427C300.117 72.8784 302.516 76.0835 305.122 79.1971C307.491 76.8091 309.999 73.8967 312.715 71.9651C315.034 70.3134 316.313 70.7494 318.88 71.3093C320.942 73.252 321.319 73.5638 322.003 76.2968C320.684 80.6925 316.055 84.1545 312.923 87.537C316.848 90.9195 320.823 93.5694 321.626 98.9161C319.961 101.725 319.336 101.87 316.472 103.069L315.362 103.21C311.744 102.189 308.265 97.2691 305.737 94.4988C303.537 97.0426 300.087 101.961 296.836 103.078C295.23 103.63 293.496 103.618 292.009 102.672C289.769 101.242 289.67 99.6692 289.233 97.2673C290.304 93.5144 295.359 89.8848 298.184 87.2587C294.913 84.4052 291.939 81.8183 289.59 78.0816C289.818 74.5379 290.453 73.7378 292.405 70.9411Z" fill="white"/>
</g>
<defs>
<clipPath id="clip0_36_199">
<rect width="440" height="356" fill="white"/>
</clipPath>
</defs>
</svg>
