<svg width="276" height="226" viewBox="0 0 276 226" fill="none" xmlns="http://www.w3.org/2000/svg">
<path d="M265.163 177.392C266.588 177.515 269.342 176.967 270.476 177.75C270.548 177.955 270.607 178.119 270.624 178.338C270.68 179.051 270.727 180.341 270.279 180.91C269.51 181.365 268.156 181.197 267.26 181.199L260.434 223.614L274.43 223.715C274.813 224.025 275.039 224.112 275.089 224.637C275.129 225.049 274.91 225.491 274.639 225.776C274.071 226.049 273.37 225.99 272.749 225.987L268.945 225.951L256.741 225.892L214.149 225.925L64.8917 225.945L20.9002 225.915L7.84087 225.916C5.92469 225.915 3.7339 226.119 1.84192 225.894C1.28801 225.828 1.14483 225.567 0.835938 225.142C0.849046 224.415 0.776107 224.38 1.30246 223.825C2.91614 223.313 5.49077 223.633 7.21368 223.627L20.027 223.607L63.0014 223.729L85.3801 223.802C85.289 223.332 84.5859 222.626 84.3371 222.156C83.4774 220.53 83.8152 217.905 83.8165 216.105L69.5267 216.092C66.6647 216.111 63.3889 216.466 60.6012 215.845C58.2635 215.324 56.1322 214.198 54.4046 212.54C51.7174 209.961 49.9266 206.445 49.8946 202.668C49.8631 198.929 51.183 194.769 51.8387 191.09L58.4736 155.857C59.3498 151.188 59.4352 146.458 60.3962 141.815C60.9524 139.128 61.8014 136.388 62.7567 133.818C65.541 126.331 69.9485 119.285 75.5787 113.6C84.4948 104.597 97.0227 98.3484 109.59 96.6947C114.425 96.0584 119.317 96.1354 124.184 96.1112L124.188 83.953L122.712 83.2441C114.71 78.8448 109.027 71.8069 106.469 63.032C105.038 63.0982 103.368 63.274 101.97 62.8918C99.5187 62.2216 97.7891 60.6486 96.5817 58.4753C95.2259 56.0348 95.117 52.9869 95.9226 50.3313C96.5861 48.1439 98.0519 46.3551 100.058 45.2792L100.264 45.1706L100.222 39.1871L100.27 31.5466C100.284 29.9739 100.191 28.2934 100.456 26.7432C101.032 23.369 102.644 20.2287 105.078 17.8271C107.527 15.4112 110.733 13.6651 114.154 13.1562C115.76 12.9169 117.424 12.9851 119.045 12.9972C119.337 11.1435 119.806 9.39877 120.734 7.75316C122.544 4.54597 125.792 2.53266 129.234 1.45844C139.236 -1.66338 149.463 1.11292 159.611 1.66952C164.014 1.91119 168.484 1.79523 172.75 0.600008L172.744 13.1619L183.418 13.1525C182.976 18.0749 181.903 23.0836 179.151 27.2763C177.899 29.1827 176.317 30.8206 174.683 32.397C174.118 36.4172 174.429 40.7994 174.437 44.8715C174.679 45.0691 174.555 44.9952 174.863 45.1269C175.567 45.4281 176.199 45.7393 176.827 46.1813C178.654 47.4663 179.965 49.7263 180.328 51.9282L180.372 52.2115C180.626 53.7627 180.557 55.3084 180.029 56.7971C179.024 59.6298 176.589 62.1937 173.569 62.8196C172.488 63.0431 171.415 63.0007 170.323 62.9012C170.109 62.8817 169.827 62.6791 169.682 62.837C169.544 62.9866 169.337 63.8188 169.253 64.0511L167.823 67.5399C164.439 74.8648 158.724 79.9764 151.577 83.4982L151.543 96.4114C155.758 96.5428 159.989 96.2678 164.202 96.5428C174.431 97.21 183.968 101.492 192.161 107.481C202.313 114.903 210.512 125.825 214.52 137.767C216.153 142.631 216.835 147.639 217.71 152.673L221.68 177.494L227.38 177.341L228.201 177.298L252.54 177.331L265.163 177.392Z" fill="#181C34"/>
<path d="M252.448 158.164L252.529 158.035C252.758 157.667 252.914 157.333 253.067 156.928C253.542 155.66 254.873 154.31 256.105 153.743C257.307 153.19 258.612 153.257 259.905 153.248L265.229 153.291L265.163 177.393L252.54 177.332L252.448 158.164Z" fill="#8CD484"/>
<path d="M227.38 177.342L227.208 154.842C227.208 152.238 226.86 148.997 227.434 146.471C227.77 144.993 228.976 143.521 230.24 142.718C231.635 141.832 233.604 141.371 235.24 141.795C237.152 142.29 238.21 143.295 239.177 144.956L239.335 145.231H239.459L239.626 144.026L239.552 177.208L232.056 177.182C230.79 177.191 229.455 177.129 228.201 177.299L227.38 177.342Z" fill="#8CD484"/>
<path d="M239.626 144.027L239.61 138.807C239.606 136.086 239.32 133.382 241.426 131.28C242.71 129.999 244.287 129.237 246.122 129.26C247.8 129.282 249.375 130.022 250.548 131.214C251.329 132.007 251.962 133.152 252.191 134.25C252.702 136.691 252.398 139.656 252.395 142.152L252.448 158.164L252.54 177.332L228.201 177.299C229.455 177.129 230.79 177.191 232.056 177.183L239.552 177.209L239.626 144.027Z" fill="#3EBF6E"/>
<path d="M170.921 46.2871C172.984 46.4004 174.679 46.7721 176.225 48.2419C177.675 49.6203 178.514 51.5718 178.542 53.5727C178.578 56.0606 177.722 57.8067 175.989 59.5599C174.268 60.9349 172.304 61.1631 170.174 61.1645C170.47 59.1804 170.401 57.1748 170.405 55.1743L170.405 46.6652L170.921 46.2871Z" fill="#8CD484"/>
<path d="M103.222 46.2626L105.684 46.1934L105.683 55.0906C105.681 57.0296 105.559 59.0443 105.876 60.9628L105.922 61.2274C104.108 61.2287 102.917 61.1873 101.234 60.461C99.9586 59.7394 98.9795 58.7996 98.2966 57.4935C97.3766 55.7353 97.219 52.9022 97.8522 51.0193L97.9366 50.784C98.1231 50.2482 98.3201 49.7511 98.6162 49.2641C99.6844 47.5062 101.299 46.7174 103.222 46.2626Z" fill="#8CD484"/>
<path d="M121.654 102.404L121.599 98.1655L124.628 98.1413C124.819 98.1406 125.472 98.1971 125.616 98.1383C125.827 98.0519 125.952 97.8297 126.12 97.6754C126.465 96.5004 126.236 94.6991 126.233 93.4572L126.26 84.9139C131.598 86.5652 137.439 87.2179 142.989 86.2439C145.27 85.8436 147.441 85.1021 149.626 84.3516L149.698 97.7544C150.117 98.1611 150.515 98.1023 151.084 98.1776C151.06 99.4844 151.111 100.652 150.118 101.643C149.709 102.051 149.278 102.256 148.709 102.342C147.794 102.481 146.735 102.387 145.802 102.388H140.207L121.654 102.404Z" fill="#F0F0F0"/>
<path d="M151.084 98.1777L154.916 98.3199C154.956 103.856 154.335 108.611 150.241 112.712C147.056 115.901 142.397 117.85 137.884 117.786C133.361 117.722 129.011 115.557 125.952 112.279C123.298 109.436 122.041 106.223 121.654 102.404L140.207 102.389H145.802C146.734 102.388 147.794 102.481 148.709 102.343C149.278 102.256 149.709 102.051 150.118 101.643C151.111 100.652 151.06 99.4845 151.084 98.1777Z" fill="white"/>
<path d="M58.9797 164.021L83.7193 169.929C83.5889 173.457 82.6962 176.818 82.0001 180.263L79.1552 193.805L71.8165 193.776C70.539 193.773 68.7162 193.411 67.7781 194.345C67.7539 194.989 67.7186 195.015 68.125 195.564C69.4116 196.135 71.7436 195.802 73.1818 195.8L83.7926 195.799L83.7892 204.975L83.8245 214.127L69.2301 214.157C66.9452 214.162 64.3205 214.42 62.0887 214.05C58.9908 213.535 55.8821 211.625 54.1178 209.02C52.9542 207.302 52.0111 204.685 51.9674 202.593C51.9452 201.517 52.2379 200.344 52.4208 199.282L53.7468 192.305L58.9797 164.021Z" fill="white"/>
<path d="M217.583 163.936C218.035 165.142 218.068 166.873 218.264 168.182L219.867 178.83L222.224 193.968C222.634 196.539 223.332 199.317 223.348 201.908C223.367 204.907 221.854 208.158 219.744 210.259C218.102 211.895 215.948 213.15 213.696 213.705C210.549 214.48 206.726 214.075 203.488 214.043L191.588 213.978L191.58 202.959L191.544 195.804L203.798 195.743L206.84 195.723C207.133 195.714 207.713 195.747 207.963 195.654C208.137 195.59 208.275 195.456 208.431 195.357C208.655 194.811 208.705 194.781 208.55 194.22C208.383 194.093 208.239 193.926 208.047 193.84C207.365 193.532 197.217 193.805 195.624 193.811L191.589 170.362L217.583 163.936Z" fill="white"/>
<path d="M121.264 24.2256C121.426 24.2206 121.594 24.1665 121.75 24.2105C121.966 24.271 122.381 24.6696 122.581 24.8145L125.329 26.7737C128.071 28.6727 130.979 30.4585 133.951 31.9734C144.71 37.4564 156.703 40.1197 168.446 36.327L168.503 49.3723C168.509 53.5764 169.007 58.3653 167.778 62.4205C165.396 70.2805 159.889 76.9466 152.664 80.8344C147.366 83.7522 141.079 85.2493 135.027 84.6214C126.535 83.7405 119.365 80.0446 113.981 73.3327C110.898 69.489 108.107 63.9216 107.671 58.9447C107.426 56.1496 107.715 53.1569 107.716 50.3369C107.718 47.4325 107.479 44.2932 107.824 41.4282L107.864 41.1197C108.041 39.709 108.354 38.3639 108.83 37.0225C111.033 30.8023 115.474 27.0157 121.264 24.2256Z" fill="white"/>
<path d="M131.412 67.3447C133.138 67.567 133.236 69.6173 134.929 70.2026C136.601 70.7809 138.122 70.0033 139.145 68.7323C139.521 68.264 139.754 67.779 140.343 67.5271C140.701 67.5066 141.134 67.4383 141.461 67.6072C141.74 67.7515 142.049 68.192 142.096 68.4933C142.193 69.1191 141.652 69.7438 141.303 70.2269L139.932 71.5454C138.741 72.5113 137.158 72.8916 135.625 72.7616C133.878 72.6133 132.282 71.8647 131.188 70.5328C130.807 70.0691 130.225 69.2105 130.33 68.5958C130.437 67.9657 130.888 67.6725 131.412 67.3447Z" fill="#181C34"/>
<path d="M116.245 43.733C119.554 43.4873 123.01 43.7031 126.339 43.6691C127.097 43.6617 129.24 43.413 129.901 43.7215C130.06 43.7955 130.181 43.9316 130.321 44.0365C130.516 44.7571 130.403 44.8892 130.16 45.5722L116.708 45.5799C116.209 45.4824 116.163 45.3376 115.889 44.9463C115.847 44.3827 115.989 44.225 116.245 43.733Z" fill="#181C34"/>
<path d="M145.106 43.7275L158.554 43.7279C159.026 43.7877 159.169 44.0589 159.419 44.4209C159.395 44.9466 159.148 45.2024 158.836 45.5943L145.782 45.6992C145.218 45.6474 145.072 45.4847 144.709 45.07C144.701 44.3776 144.764 44.2936 145.106 43.7275Z" fill="#181C34"/>
<path d="M150.777 50.4799C151.428 50.3602 152.105 50.2997 152.757 50.4624C153.684 50.6936 154.494 51.4556 154.91 52.2952C155.384 53.2501 155.408 54.3341 155.015 55.3212C154.565 56.4512 153.614 57.1026 152.527 57.5433C151.873 57.6189 151.154 57.5971 150.529 57.3698C149.629 57.0428 148.826 56.2986 148.422 55.4355C148.003 54.5401 147.977 53.4998 148.322 52.5728C148.731 51.4731 149.78 50.941 150.777 50.4799Z" fill="#181C34"/>
<path d="M123.118 50.1357C123.736 50.1989 124.316 50.2735 124.897 50.5061C125.872 50.8964 126.566 51.615 126.932 52.6065C127.281 53.5547 127.177 54.5418 126.73 55.4409C126.179 56.5468 125.273 57.021 124.159 57.4096C123.427 57.377 122.666 57.3188 121.999 56.9861C121.07 56.5219 120.304 55.69 119.98 54.6965C119.689 53.8011 119.854 52.8136 120.328 52.0099C120.983 50.9007 121.915 50.451 123.118 50.1357Z" fill="#181C34"/>
<path d="M90.2691 147.984L108.691 148.003L148.549 147.993L172.949 147.992C176.857 147.987 180.937 147.729 184.828 147.973C185.732 148.029 186.611 148.423 187.343 148.944C188.517 149.782 189.303 151.191 189.516 152.605C189.835 154.727 189.587 157.227 189.584 159.397L189.574 174.068L189.53 204.369L189.415 220.224C189.371 221.009 189.152 221.63 188.663 222.254C187.833 223.314 186.711 223.683 185.423 223.825L114.366 223.773L96.7823 223.756L92.0737 223.75C91.1399 223.748 90.0819 223.828 89.1717 223.619L88.9791 223.572C88.6083 223.485 88.2692 223.408 87.9344 223.216C86.9812 222.67 86.2576 221.732 85.9709 220.673C85.6274 219.404 85.8566 217.631 85.8536 216.288L85.8331 205.771L85.7027 171.189L85.67 153.22C85.7161 152.141 85.9689 151.278 86.5584 150.363C87.4141 149.036 88.7542 148.294 90.2691 147.984Z" fill="#3EBF6E"/>
<path d="M137.371 176.049C139.411 175.954 141.468 176.716 143.05 177.985C144.955 179.511 146.181 181.798 146.42 184.228C146.654 186.623 145.837 188.882 144.286 190.702C142.593 192.689 140.543 193.637 137.976 193.859C135.948 193.816 134.333 193.559 132.626 192.349C130.717 190.995 129.08 188.897 128.722 186.536C128.358 184.135 128.826 181.661 130.321 179.701C132.057 177.427 134.596 176.355 137.371 176.049Z" fill="white"/>
</svg>
