<svg width="195" height="194" viewBox="0 0 195 194" fill="none" xmlns="http://www.w3.org/2000/svg">
<g clip-path="url(#clip0_75_364)">
<path d="M0.333252 0H194.333V194H0.333252V0Z" fill="white"/>
<path d="M133.847 111.042C134.361 109.927 138.59 105.914 139.689 105.047C140.612 107.139 141.12 109.576 141.334 111.847C141.481 113.393 141.413 114.988 141.411 116.541L141.399 123.911L141.419 133.299L141.395 139.152C141.375 139.638 141.297 140.153 141.116 140.606C140.673 141.716 139.78 142.517 138.681 142.965C138.374 143.09 138.06 143.187 137.73 143.218C136.111 143.371 134.367 143.242 132.738 143.242L121.575 143.233C122.721 139.045 122.733 134.473 121.746 130.254C121.277 128.252 120.637 126.348 120.517 124.279L124.89 120L131.18 113.734L132.97 111.859C133.218 111.595 133.516 111.185 133.847 111.042Z" fill="#181C34"/>
<path d="M124.89 120L131.18 113.734L132.97 111.859C133.218 111.595 133.515 111.185 133.847 111.042C134.254 112.981 134.247 114.77 134.244 116.741L134.212 122.439L134.193 135.75L124.978 135.745L124.89 120Z" fill="white"/>
<path d="M101.567 57.2127L106.87 57.1831C107.285 57.1839 108.306 57.0757 108.616 57.2917L108.656 57.4741C108.495 59.8019 108.697 62.1767 108.588 64.5138C108.398 68.5444 106.531 72.6152 103.728 75.496C100.526 78.7878 96.1939 80.8918 91.5574 80.936C86.7472 80.9818 82.1043 79.4611 78.6344 76.0125C75.5456 72.9424 73.6558 69.1654 73.3409 64.804C73.1619 62.323 73.3449 59.7131 73.3405 57.2157C74.3314 57.2013 79.8426 57.0092 80.3179 57.2972L80.3384 57.3866L80.3638 57.3464C80.3655 57.3447 80.5157 57.2259 80.5218 57.2242C80.7881 57.1492 81.3915 57.2324 81.6886 57.2347L85.4237 57.2515L101.567 57.2127Z" fill="#181C34"/>
<path d="M80.3384 57.386L80.3638 57.3459C80.3655 57.3442 80.5157 57.2254 80.5218 57.2237C80.7881 57.1486 81.3915 57.2318 81.6886 57.2341L85.4237 57.251L101.567 57.2121C101.582 59.6652 101.744 62.3145 101.438 64.7442C101.095 67.4613 99.7166 69.8164 97.5722 71.5289C95.268 73.3689 92.3901 74.1115 89.4742 73.7531C86.7684 73.4206 84.0418 71.6928 82.4116 69.5461C79.6251 65.8768 80.6591 61.6368 80.3384 57.386Z" fill="white"/>
<path d="M73.3405 57.2151L70.9543 57.2443C69.6085 57.2543 68.5693 57.3363 67.5258 56.3319C66.8587 55.6898 66.4029 54.7823 66.3751 53.8506C66.3688 53.6413 66.4003 53.4408 66.4315 53.2349L66.4533 53.0826C66.5931 52.2014 67.1639 51.4212 67.8886 50.9184C69.009 50.1411 70.2371 50.2951 71.5293 50.2929L74.6885 50.2927C74.6545 48.7143 74.5024 47.0437 74.6367 45.4715C74.8609 42.8527 76.0974 40.3388 77.9164 38.4585C79.7944 36.5171 82.0684 35.4312 84.737 35.1311C86.6791 34.9129 88.7277 35.0404 90.6827 35.0419C93.3987 35.044 96.3805 34.7685 98.9983 35.604C100.448 36.0666 101.848 36.9313 103.038 37.8649C105.064 39.4535 106.51 41.7366 107.217 44.2029C107.73 45.9902 107.928 48.0719 108.138 49.9194L108.168 50.2224L110.994 50.2747C112.329 50.3004 113.575 50.1648 114.6 51.2216C115.172 51.8111 115.701 52.7874 115.69 53.6308C115.677 54.6122 115.226 55.6267 114.492 56.2801C113.065 57.5493 111.069 57.2011 109.304 57.1916C109.226 57.1912 108.803 57.1787 108.75 57.2151C108.675 57.2668 108.688 57.3873 108.656 57.4735L108.616 57.2911C108.306 57.0751 107.285 57.1833 106.87 57.1825L101.567 57.2121L85.4236 57.2509L81.6886 57.234C81.3915 57.2318 80.7881 57.1486 80.5217 57.2236C80.5157 57.2253 80.3654 57.3441 80.3637 57.3458L80.3383 57.386L80.3179 57.2966C79.8425 57.0086 74.3313 57.2007 73.3405 57.2151Z" fill="#3EBF6E"/>
<path d="M87.5245 42.2877L92.2855 42.2613C93.2485 42.2621 94.3644 42.1769 95.2955 42.4286C96.328 42.7077 97.2283 43.1891 98.0034 43.9223C99.8971 45.7139 100.038 47.8097 100.116 50.2582L93.1204 50.2801L80.4735 50.203L80.4526 49.9641C80.4024 49.2444 80.3272 48.4006 80.5013 47.6941C80.6902 46.9274 81.3635 46.0485 81.8815 45.4622C83.4553 43.6807 85.0948 42.4423 87.5245 42.2877Z" fill="white"/>
<path d="M135.903 98.1488C136.525 97.2574 137.473 96.5208 138.247 95.7505L142.206 91.7578L142.137 91.6011C141.446 90.0144 141.451 88.0138 142.088 86.4029C142.698 84.8577 143.877 83.6414 145.413 83.0049C145.821 82.8357 146.292 82.6746 146.732 82.6097C147.82 82.4484 148.837 82.7108 149.408 81.4979C149.64 81.0059 149.522 80.3446 149.645 79.8154C149.853 78.9197 151.306 77.2966 152.13 76.9586C152.857 76.661 153.711 76.5699 154.439 76.899C155.274 77.2769 156.068 78.2913 156.721 78.9413L160.301 82.518C161.384 83.6013 162.641 84.6772 163.616 85.852C163.984 86.2949 164.211 86.8333 164.4 87.3727C164.955 88.9512 164.888 90.6124 164.154 92.1206C163.56 93.3409 162.367 94.5071 161.07 94.9601C160.386 95.1994 159.818 94.7207 159.162 94.7602C159.057 94.7667 158.766 94.9503 158.671 95.0069C158.455 95.1367 158.247 95.3017 158.127 95.5279C157.837 96.0771 158.024 96.611 158.118 97.1843C158.289 98.218 157.806 99.1433 157.121 99.8882C156.698 100.347 156.235 100.727 155.648 100.96C154.63 101.364 153.657 101.138 152.708 100.692C150.716 99.7548 148.847 98.5486 146.623 98.307C145.907 98.7488 145.315 99.4596 144.724 100.054L141.702 103.083C141.052 103.742 140.419 104.475 139.69 105.047C138.59 105.914 134.361 109.927 133.847 111.042C133.516 111.185 133.218 111.595 132.97 111.859L131.18 113.734L124.89 120L120.517 124.279C120.637 126.348 121.278 128.253 121.746 130.254C122.733 134.473 122.721 139.045 121.575 143.233L120.645 145.9C118.478 150.845 114.023 155.08 108.98 157.035C105.072 158.55 100.811 159.086 96.6727 158.288C94.9096 157.948 93.1754 157.322 91.537 156.597C86.0984 154.192 81.8114 149.607 79.7064 144.055C77.5533 138.376 78.0729 131.578 80.5841 126.108C81.8281 123.398 83.7258 120.981 85.8598 118.92C86.2713 118.522 86.7861 117.946 87.3272 117.746C87.5949 117.819 87.5907 117.753 87.7972 117.592C89.8842 115.963 92.3443 114.778 94.8704 114.002L94.8994 121.935C91.8636 122.933 88.946 126.008 87.5378 128.814C85.7015 132.473 85.3879 137.012 86.679 140.895C87.9285 144.653 90.5308 147.819 94.1062 149.567C97.7306 151.339 101.907 151.636 105.725 150.291C109.099 149.103 112.232 146.293 113.761 143.048C114.357 141.785 114.799 140.415 114.987 139.03C115.311 136.641 115.132 134.065 115.132 131.654L115.154 119.1L123.334 110.926L130.692 103.477L133.957 100.187C134.604 99.5277 135.335 98.8769 135.903 98.1488Z" fill="#3EBF6E"/>
<path d="M154.022 85.9248L157.079 89.0847L151.58 93.0354L151.377 93.1121C150.348 92.4494 149.241 91.0897 148.492 90.1117L154.022 85.9248Z" fill="white"/>
<path d="M94.8702 114.002L94.8587 100.452C95.6517 99.649 96.7094 98.9859 97.615 98.3109C99.926 96.5884 102.3 94.7871 104.785 93.326C108.22 91.3064 112.619 90.8957 116.446 91.915C122.58 93.5494 127.583 98.0621 130.692 103.477L123.334 110.926L115.153 119.1L115.132 131.654C115.132 134.065 115.311 136.641 114.987 139.03C114.799 140.415 114.356 141.785 113.761 143.048C112.232 146.293 109.099 149.103 105.724 150.291C101.907 151.636 97.7304 151.339 94.106 149.567C90.5306 147.819 87.9283 144.654 86.6788 140.895C85.3877 137.012 85.7013 132.473 87.5376 128.814C88.9458 126.008 91.8634 122.934 94.8992 121.935L94.8702 114.002Z" fill="white"/>
<path d="M95.444 134.435C96.4161 134.371 97.2707 134.439 98.141 134.913C99.1493 135.463 99.8732 136.538 100.145 137.638C100.405 138.688 100.185 139.849 99.6004 140.751C98.9019 141.829 97.9294 142.379 96.7124 142.651C95.7136 142.763 94.8404 142.614 93.9691 142.095C92.9457 141.484 92.2161 140.404 91.9526 139.247C91.7068 138.168 92.0558 137.025 92.6755 136.129C93.3585 135.142 94.2969 134.669 95.444 134.435Z" fill="#181C34"/>
<path d="M106.228 126.782C107.117 126.825 107.854 126.968 108.613 127.475C109.556 128.105 110.191 129.107 110.398 130.219C110.599 131.309 110.359 132.523 109.703 133.421C108.968 134.426 107.804 135.028 106.593 135.19C105.552 135.187 104.624 134.984 103.777 134.332C102.843 133.613 102.258 132.569 102.113 131.401C101.982 130.338 102.35 129.122 103.033 128.308C103.901 127.273 104.916 126.889 106.228 126.782Z" fill="#181C34"/>
<path d="M115.154 119.099L115.171 105.536L118.955 106.475C120.007 106.739 121.082 106.933 121.934 107.655C122.999 108.557 123.216 109.619 123.334 110.926L115.154 119.099Z" fill="#181C34"/>
<path d="M87.327 117.746C87.5034 117.072 87.4443 116.341 87.445 115.647L87.4481 112.453L87.4395 100.66C85.6681 99.1263 83.6721 97.8202 81.8133 96.3936L77.4946 93.1559C77.0209 92.8044 76.5441 92.3077 76.0162 92.0481C74.4758 91.2909 72.3933 90.9181 70.6833 90.9141C65.5677 90.9021 60.7048 93.136 57.1084 96.7297C54.6984 99.138 52.6945 102.47 51.8572 105.782C51.0823 108.848 51.1569 111.792 51.1746 114.925L51.2017 122.235L51.1897 144.113L60.7789 144.08L60.7749 107.832L67.6756 105.71L67.625 151.187L55.2791 151.146L50.0024 151.166C48.806 151.171 47.4776 151.299 46.3183 150.965C45.4889 150.727 44.8231 150.123 44.4236 149.366L44.3501 149.221C44.1911 148.913 44.1134 148.666 44.0811 148.319C43.9189 146.573 44.0509 144.701 44.0466 142.944L44.0341 132.079L44.053 117.915C44.0509 113.737 43.7753 109.417 44.6547 105.311C45.5823 100.979 47.6329 96.7507 50.5234 93.3891C55.1953 87.9552 61.8012 84.4103 68.9836 83.8918C73.0727 83.5966 77.3466 84.252 80.8617 86.468C82.449 87.4689 83.9159 88.7121 85.4097 89.8482C87.2472 91.2458 89.166 92.578 90.9171 94.0795L99.9455 87.5738C104.539 84.3366 110.62 83.3108 116.115 84.2815C122.236 85.3629 127.876 88.7321 132.093 93.2574C133.511 94.7797 134.709 96.451 135.903 98.1489C135.335 98.877 134.604 99.5277 133.957 100.187L130.692 103.477C127.583 98.0619 122.58 93.5492 116.446 91.9148C112.619 90.8955 108.22 91.3062 104.785 93.3258C102.3 94.7869 99.926 96.5882 97.6151 98.3107C96.7095 98.9857 95.6518 99.6488 94.8587 100.452L94.8703 114.002C92.3441 114.778 89.884 115.964 87.797 117.592C87.5905 117.753 87.5947 117.819 87.327 117.746Z" fill="#181C34"/>
</g>
<defs>
<clipPath id="clip0_75_364">
<rect width="194" height="194" fill="white" transform="translate(0.333252)"/>
</clipPath>
</defs>
</svg>
