<svg width="194" height="194" viewBox="0 0 194 194" fill="none" xmlns="http://www.w3.org/2000/svg">
<g clip-path="url(#clip0_75_538)">
<path d="M0 0H194V194H0V0Z" fill="white"/>
<path d="M133.451 97.5664L141.246 97.5755L141.249 105.03L133.463 105.028L133.451 97.5664Z" fill="#181C34"/>
<path d="M141.422 78.1494L154.054 78.1532C154.302 78.3373 154.503 78.689 154.688 78.9391L155.777 80.3956C157.049 82.0889 158.418 83.7396 159.601 85.4953L141.399 85.501L141.422 78.1494Z" fill="#181C34"/>
<path d="M40.1686 78.0873L52.9334 78.0186L52.9336 85.4538L47.1265 85.462L34.3177 85.5052L40.1686 78.0873Z" fill="#181C34"/>
<path d="M85.0705 55.9058L100.77 55.8624L106.552 55.8647C107.525 55.8664 108.824 55.7169 109.748 56.0104L109.883 56.0572L110.026 56.1032C110.707 56.3317 111.249 56.7455 111.671 57.3216C112.144 57.9674 112.492 58.7328 112.862 59.4414L114.656 62.8008L119.821 72.1963L122.8 77.5959L114.681 77.5864C114.418 77.3591 114.236 76.9177 114.059 76.6081L112.485 73.7394L107.588 64.8849L106.66 63.1895L87.2217 63.18L79.5019 77.5491C78.663 77.6694 77.7201 77.5965 76.87 77.602L71.2808 77.6027L82.108 57.8369C82.8482 56.7112 83.7826 56.1667 85.0705 55.9058Z" fill="#181C34"/>
<path d="M160.629 103.751L160.638 138.018L113.163 138.031L116.345 134.867L133.58 117.907L139.932 124.168L160.629 103.751Z" fill="#50B977"/>
<path d="M47.1632 102.596L82.6714 138.109L68.6294 138.09L33.095 138.097L33.1562 116.676L47.1632 102.596Z" fill="#50B977"/>
<path d="M96.6859 84.7295C102.878 84.853 108.69 86.9281 113.309 91.1133C118.002 95.3648 120.938 101.366 121.26 107.708C121.563 113.686 119.285 119.993 115.262 124.421C113.348 126.528 111.198 128.388 108.699 129.774C105.283 131.67 101.466 132.519 97.5992 132.705C91.2705 132.769 85.1656 130.608 80.4961 126.278C75.8453 121.965 73.1298 116.051 72.9364 109.713C72.7352 103.123 75.1583 96.9149 79.6868 92.1263C84.0842 87.476 90.3415 84.9278 96.6859 84.7295Z" fill="#181C34"/>
<path d="M95.9601 91.7337C100.154 91.5895 104.113 92.6417 107.467 95.2323C110.995 97.9568 113.608 102.061 114.154 106.533C114.713 111.119 113.49 115.495 110.614 119.124C107.452 123.114 103.311 125.193 98.3211 125.787C93.9123 126.026 89.4761 124.696 86.064 121.849C82.5351 118.906 80.2311 114.615 79.8901 110.011C79.5754 105.76 80.8984 101.282 83.6707 98.018C86.8952 94.2212 91.0114 92.1321 95.9601 91.7337Z" fill="white"/>
<path d="M102.163 98.533C103.072 98.4551 104.062 98.4212 104.957 98.6298C106.65 99.0246 108.052 100.042 108.968 101.518C109.89 103.004 110.166 104.788 109.747 106.495L109.704 106.662C109.514 107.427 109.223 108.145 108.772 108.796C107.719 110.316 106.115 111.151 104.332 111.486C102.695 111.646 101.077 111.474 99.6667 110.563C98.0759 109.535 97.1326 108.101 96.7629 106.24C96.4341 104.583 96.7664 102.846 97.7214 101.449C98.7687 99.9179 100.343 98.8752 102.163 98.533Z" fill="#50B977"/>
</g>
<defs>
<clipPath id="clip0_75_538">
<rect width="194" height="194" fill="white"/>
</clipPath>
</defs>
</svg>
