<svg width="430" height="287" viewBox="0 0 430 287" fill="none" xmlns="http://www.w3.org/2000/svg">
<path d="M280.819 86.0076L289.724 85.981L289.743 91.5508C289.743 92.6086 289.906 93.8236 289.419 94.7911L280.917 94.7857L280.819 86.0076Z" fill="#3EBF6E"/>
<path d="M50.1287 74.6533L59.519 74.6634L59.4851 83.7059L50.153 83.6947L50.1287 74.6533Z" fill="#3EBF6E"/>
<path d="M387.944 92.0512L397.593 92.0173C397.602 93.6623 397.969 100.514 397.266 101.547L388.33 101.5C388.336 99.856 388.68 93.2581 388.019 92.1614L387.944 92.0512Z" fill="#181C34"/>
<path d="M134.432 66.7223L144.015 66.6799L144.009 76.1924L134.44 76.2171L134.432 66.7223Z" fill="white"/>
<path d="M286.418 192.113H296.165L296.199 197.988C296.219 199.154 296.415 200.568 295.941 201.643L286.426 201.637L286.418 192.113Z" fill="white"/>
<path d="M147.391 201.151L157.266 201.158L157.269 211.172L147.399 211.14L147.391 201.151Z" fill="white"/>
<path d="M57.3442 210.399L67.3955 210.37L67.398 220.235L57.3557 220.207L57.3442 210.399Z" fill="white"/>
<path d="M191.802 216.878C191.885 216.877 192.186 217.05 192.266 217.09L192.206 226.964L183.033 226.968L182.508 226.825C182.05 223.761 182.425 220.071 182.432 216.94L191.802 216.878Z" fill="#3EBF6E"/>
<path d="M376.748 196.21C377.65 196.538 378.834 198.079 379.542 198.788L387.552 206.917L380.948 213.553C379.57 214.935 378.221 216.462 376.653 217.621C376.343 216.776 374.892 215.609 374.246 214.942L366.36 206.939L372.552 200.56C373.901 199.218 375.514 197.885 376.642 196.358L376.748 196.21Z" fill="#3EBF6E"/>
<path d="M323.228 60.5332C324.379 61.0164 325.857 63.0498 326.803 64.0254L334.549 71.8274L327.836 78.522C326.389 80.0114 325.023 81.6613 323.374 82.9256C323.035 81.9537 314.177 73.2823 312.579 71.6407L319.662 64.3435C320.818 63.1658 322.189 61.9727 323.155 60.6358L323.228 60.5332Z" fill="#3EBF6E"/>
<path d="M182.386 131.903L190.447 131.917L190.444 139.654L182.381 139.655L182.386 131.903Z" fill="white"/>
</svg>
