<svg width="92" height="89" viewBox="0 0 92 89" fill="none" xmlns="http://www.w3.org/2000/svg">
<path d="M42.9303 17.4734L42.9272 11.6334C42.9197 10.2152 42.8066 8.7048 43.3136 7.35528C43.8357 5.96513 44.4586 4.81544 45.4591 3.70528C46.9537 2.04718 49.0618 0.857423 51.3081 0.762691C53.469 0.671882 56.5952 0.245025 58.2547 1.85099C59.0914 2.66126 59.5105 3.76666 59.5245 4.92699C59.5391 6.14338 59.0965 7.21458 58.2538 8.08287C56.785 9.59634 54.6557 9.35223 52.7193 9.40408C52.2047 9.74882 51.9964 10.0125 51.7546 10.5871L51.6885 10.7522L51.7621 17.576L91.8991 17.4462L91.875 29.5555L91.889 42.1501L91.8871 53.0497L91.8784 64.2768L91.8834 75.1117L91.8678 88.1797L42.8155 88.2046L42.7912 76.6061L22.5302 76.4979L16.2846 76.4881C15.2555 76.4839 14.0864 76.5831 13.0772 76.439C12.4132 76.3446 11.7492 76.0828 11.2119 75.6764C10.2663 74.9614 9.74472 73.9794 9.6305 72.8025C9.51684 71.6312 9.95133 70.3854 10.7511 69.5224C11.2948 68.9358 12.2066 68.5221 12.9874 68.4036C15.8538 67.9692 19.2464 68.3215 22.1663 68.3282L42.7565 68.4061L42.771 64.0924L42.7946 63.8441C39.5738 63.4848 36.0383 63.762 32.7831 63.7401C31.7044 63.7328 30.3791 63.873 29.3425 63.6089C28.4299 63.3766 27.3543 62.515 26.917 61.6795C26.4971 60.8763 26.1892 59.7266 26.4739 58.8468C26.8851 57.5766 27.3859 56.4449 28.6379 55.786C29.6462 55.2554 31.2184 55.437 32.3295 55.4395L39.9802 55.4914C40.7627 55.4981 42.0972 55.6949 42.7671 55.3308L42.8178 53.6023L42.8228 51.3352L42.766 50.8251L32.4874 50.8108L13.4518 50.8162L6.42762 50.8383C5.3487 50.838 4.09593 50.9641 3.04305 50.7763C2.48231 50.6763 1.85803 50.271 1.43755 49.9044C0.615899 49.188 0.111152 47.9742 0.0842773 46.8993C0.058802 45.8688 0.353028 44.9226 1.10973 44.193C1.64527 43.677 2.42464 43.1372 3.17322 43.0453C4.52509 42.8788 6.06117 43.0013 7.43375 43.0002L15.7348 43.015L42.8111 43.0576L42.7917 38.5421L33.811 38.5009C32.4365 38.4911 30.7893 38.6512 29.4606 38.3653C28.8968 38.2442 28.4301 37.9844 27.9931 37.6144C27.1334 36.8868 26.5777 35.8078 26.4963 34.6772C26.4134 33.5278 26.7356 32.2766 27.5332 31.4187C27.9649 30.9543 28.5063 30.5504 29.1376 30.415C30.27 30.1723 31.7596 30.3385 32.9314 30.3402C36.1752 30.345 39.52 30.5336 42.7512 30.2931L42.7917 29.9907L42.7901 25.7771L21.9348 25.8065L15.7717 25.8076C14.8252 25.8057 13.7306 25.9049 12.8004 25.7709C12.1173 25.6728 11.4247 25.3443 10.8947 24.9007C10.0364 24.1823 9.46114 23.054 9.37351 21.9387C9.29093 20.8902 9.57171 19.8622 10.2623 19.0673C10.7453 18.5116 11.5787 17.7414 12.299 17.5477C12.9216 17.3801 13.7992 17.4858 14.4562 17.483L19.1101 17.4866L34.1506 17.5312C37.0643 17.5393 40.0239 17.652 42.9303 17.4734Z" fill="#3EBF6E"/>
<path d="M53.8984 64.1001L91.8784 64.2769L91.8834 75.1118L53.89 75.0834L53.8984 64.1001Z" fill="white"/>
<path d="M53.8864 53.1018L53.8612 42.073L91.8891 42.1501L91.8871 53.0496L53.8864 53.1018Z" fill="white"/>
</svg>
