<svg width="195" height="194" viewBox="0 0 195 194" fill="none" xmlns="http://www.w3.org/2000/svg">
<g clip-path="url(#clip0_75_549)">
<path d="M0.666626 0H194.667V194H0.666626V0Z" fill="white"/>
<path d="M99.0587 47.1221L100.758 47.1852C104.759 47.4212 108.709 49.5852 111.315 52.5652C114.214 55.8803 115.516 60.1443 115.206 64.5078C114.906 68.7218 112.635 72.7337 109.388 75.3898C108.898 75.7899 108.387 76.1666 107.848 76.4953C107.442 76.7421 106.962 76.9587 106.606 77.2661L116.585 77.2072C118.655 77.2046 120.876 77.0352 122.918 77.4116C124.322 77.6704 125.728 78.2343 126.928 79.0093C130.105 81.0611 132.119 84.3392 132.541 88.0837C132.666 89.1998 132.615 90.3505 132.617 91.4742L132.618 93.7938C132.618 94.1979 132.567 94.6701 132.655 95.0647L167.167 71.362L167.164 146.917L132.684 123.135L132.651 131.67C132.649 133.108 132.749 134.628 132.578 136.055C132.26 138.707 130.888 141.315 129.002 143.179C127.472 144.692 125.37 145.928 123.252 146.394C121.553 146.767 119.821 146.652 118.093 146.644L112.648 146.646L91.6514 146.7L62.3205 146.645C61.0244 146.645 59.7345 146.675 58.4488 146.479C55.9994 146.105 53.5672 144.726 51.8384 142.975C50.2355 141.35 48.8314 139.051 48.4328 136.773C48.1835 135.348 48.2203 133.911 48.2269 132.471L36.8624 132.518L33.769 132.514C33.0155 132.512 32.2406 132.548 31.497 132.405C30.7877 132.269 30.1025 131.865 29.5775 131.381C28.7145 130.585 28.0842 129.505 28.0568 128.307L28.0869 122.524L28.0634 104.608L28.0562 96.5798C28.053 95.2763 27.9281 93.852 28.0831 92.5681C28.1943 91.6472 28.6937 90.7168 29.349 90.0681C29.9153 89.5073 30.7254 89.0924 31.5073 88.9531C33.0822 88.6727 34.9779 88.862 36.5857 88.8631L48.005 88.9338L48.1299 87.5749C48.556 84.112 50.7642 81.1348 53.4583 79.0606L52.2333 78.8644C48.2782 78.0751 44.5922 75.2915 42.4033 71.9503C40.0997 68.4344 39.2146 63.9394 40.1141 59.8202C41.0072 55.7304 43.6226 51.8785 47.1769 49.6373C50.6504 47.447 55.055 46.5522 59.085 47.4991C63.342 48.4992 67.094 51.2381 69.3808 54.9615C71.5527 58.4978 72.0732 63.0683 71.1276 67.0686C70.05 71.6271 67.1228 74.8466 63.2428 77.2595L91.8742 77.3042C90.8161 76.6713 89.7525 76.0194 88.8254 75.2007C85.4965 72.2627 83.6366 68.2271 83.4026 63.8186C83.1802 59.6246 84.7659 55.354 87.6004 52.2657C90.6204 48.9749 94.656 47.3471 99.0587 47.1221Z" fill="#181C34"/>
<path d="M55.5433 56.1172C57.273 56.1646 58.6969 56.5649 60.0932 57.6188C61.6016 58.7578 62.5938 60.4477 62.8385 62.3252C63.0949 64.2928 62.513 66.2834 61.2689 67.826C60.0111 69.3852 58.1911 70.1858 56.2298 70.393C54.4173 70.3879 52.7174 69.9321 51.298 68.7456C49.8669 67.5494 48.8249 65.7821 48.6964 63.8904C48.5593 61.8716 49.0977 60.0239 50.4348 58.4886C51.7375 56.9932 53.6053 56.2551 55.5433 56.1172Z" fill="white"/>
<path d="M98.8246 56.1161C100.363 55.9445 102.292 56.5469 103.531 57.4652C105.047 58.5887 106.084 60.3845 106.314 62.2599C106.552 64.1934 106.017 66.1374 104.818 67.6714C103.561 69.281 101.682 70.1267 99.6923 70.3622C97.9927 70.4223 96.2604 69.9202 94.9107 68.8714C93.4137 67.708 92.3719 65.9449 92.1528 64.0531C91.9401 62.2133 92.4812 60.2754 93.6389 58.8242C94.9802 57.1426 96.7236 56.3537 98.8246 56.1161Z" fill="white"/>
<path d="M46.034 97.8067L47.956 97.8037L47.9725 123.389L39.0783 123.361L37.2203 123.344C37.0886 123.127 37.1652 122.505 37.164 122.242L37.1536 118.357L37.1415 97.8253L46.034 97.8067Z" fill="#3EBF6E"/>
<path d="M158.058 88.2695L158.157 88.3483C158.248 88.6632 158.211 89.0433 158.213 89.371L158.224 91.33L158.219 100.148L158.202 129.879L143.057 119.574L132.674 112.545C132.573 111.79 132.634 110.962 132.632 110.196L132.622 105.666L158.058 88.2695Z" fill="white"/>
<path d="M60.5022 85.7571L69.7871 85.7451L91.1489 85.822L110.972 85.8381L120.427 85.8359C121.074 85.8633 121.716 86.024 122.248 86.4071C122.88 86.8623 123.417 87.6762 123.491 88.4585C123.556 89.1407 123.482 89.8797 123.481 90.5682L123.485 94.9131L123.481 109.657L123.483 126.227L123.49 131.734C123.489 132.84 123.532 133.966 123.448 135.069C123.403 135.664 123.193 136.159 122.798 136.61C122.111 137.394 121.479 137.616 120.467 137.674L81.8494 137.668L68.0127 137.692C65.5901 137.701 63.0994 137.83 60.6831 137.694C60.0488 137.658 59.5165 137.527 58.968 137.189C58.2394 136.741 57.6062 136.008 57.4169 135.156L57.3916 135.032C57.2682 134.445 57.3127 133.825 57.3141 133.227L57.3252 130.187L57.3393 120.215L57.3347 99.249L57.3198 89.3216C57.3522 88.6284 57.4986 87.997 57.8798 87.4087C58.5008 86.4503 59.3984 85.9757 60.5022 85.7571Z" fill="white"/>
<path d="M84.5435 94.5661L84.8629 94.5519C86.0403 94.543 87.1638 94.8946 88.1607 95.5128C89.1468 96.124 89.97 96.9729 90.7935 97.7808L93.7928 100.734L101.073 107.927C102.125 108.969 103.067 110.038 103.034 111.631C103.016 112.506 102.747 113.305 102.24 114.017C101.426 115.161 100.117 116.219 99.1179 117.214L92.6151 123.703L88.4559 127.8C87.3809 128.639 85.9924 129.025 84.6371 128.867L84.4523 128.845C83.3778 128.719 82.3269 128.316 81.459 127.666C80.2738 126.777 79.4112 125.257 79.2238 123.793C79.0624 122.533 79.1732 121.135 79.1692 119.861L79.1545 111.739L79.1476 103.737C79.1458 102.365 79.019 100.827 79.2284 99.4745C79.3818 98.4817 79.7787 97.5108 80.4024 96.721C81.4667 95.373 82.8604 94.7772 84.5435 94.5661Z" fill="#3EBF6E"/>
<path d="M88.5683 108.345C89.3338 108.834 89.9755 109.727 90.6094 110.378C91.0232 110.803 91.6181 111.25 91.9367 111.74L90.265 113.422L88.551 115.243L88.5683 108.345Z" fill="white"/>
</g>
<defs>
<clipPath id="clip0_75_549">
<rect width="194" height="194" fill="white" transform="translate(0.666626)"/>
</clipPath>
</defs>
</svg>
